<?xml version="1.0" encoding="UTF-8" standalone="no"?>
<!-- Created with Inkscape (http://www.inkscape.org/) -->

<svg
   width="118.3974mm"
   height="32.019592mm"
   viewBox="0 0 118.3974 32.019592"
   version="1.1"
   id="svg5"
   xml:space="preserve"
   inkscape:version="1.2.1 (9c6d41e410, 2022-07-14)"
   sodipodi:docname="Axia dao.svg"
   xmlns:inkscape="http://www.inkscape.org/namespaces/inkscape"
   xmlns:sodipodi="http://sodipodi.sourceforge.net/DTD/sodipodi-0.dtd"
   xmlns="http://www.w3.org/2000/svg"
   xmlns:svg="http://www.w3.org/2000/svg"><sodipodi:namedview
     id="namedview7"
     pagecolor="#ffffff"
     bordercolor="#000000"
     borderopacity="0.25"
     inkscape:showpageshadow="2"
     inkscape:pageopacity="0.0"
     inkscape:pagecheckerboard="0"
     inkscape:deskcolor="#d1d1d1"
     inkscape:document-units="mm"
     showgrid="false"
     showguides="true"
     inkscape:zoom="0.50333193"
     inkscape:cx="-383.44478"
     inkscape:cy="-226.4907"
     inkscape:window-width="1366"
     inkscape:window-height="745"
     inkscape:window-x="-8"
     inkscape:window-y="-8"
     inkscape:window-maximized="1"
     inkscape:current-layer="layer1"><sodipodi:guide
       position="767.29443,-396.78852"
       orientation="0,-1"
       id="guide20585"
       inkscape:locked="false" /></sodipodi:namedview><defs
     id="defs2"><rect
       x="73.510139"
       y="190.729"
       width="627.81635"
       height="252.31857"
       id="rect26195" /></defs><g
     inkscape:label="Layer 1"
     inkscape:groupmode="layer"
     id="layer1"
     transform="translate(637.98115,221.95944)"><g
       id="g28828"
       transform="translate(-666.26461,-128.01779)"
       inkscape:export-filename="Desktop\axia.svg"
       inkscape:export-xdpi="96"
       inkscape:export-ydpi="96"><g
         id="g18025"
         inkscape:export-filename="Desktop\axia.svg"
         inkscape:export-xdpi="96"
         inkscape:export-ydpi="96"
         style="fill:#ffd17c;fill-opacity:1"
         transform="translate(6.3079646,56.246018)"><g
           aria-label="axia"
           transform="matrix(1.2163336,0,0,1.2163336,-69.277208,-392.23145)"
           id="text26193"
           style="font-weight:bold;font-size:37.3333px;-inkscape-font-specification:'sans-serif Bold';letter-spacing:5.32px;word-spacing:2.94px;white-space:pre;shape-inside:url(#rect26195);fill:#ffd17c;fill-opacity:1;stroke:#999999;stroke-width:12.3402;stroke-linecap:round;stroke-linejoin:round"><path
             d="m 94.746727,220.72372 v 4.0651 h -8.476556 v -1.38542 q -2.278643,1.64063 -4.812495,1.64063 -2.624998,0 -4.539059,-1.49479 -1.895832,-1.49479 -1.895832,-4.01042 0,-2.53385 2.005207,-4.24739 2.005206,-1.71354 5.177079,-1.71354 1.768227,0 4.0651,0.89323 v -1.07552 q 0,-1.34896 -0.911457,-2.20573 -0.911458,-0.875 -2.442706,-0.875 -1.895832,0 -3.244789,1.38542 l -4.539059,-0.82031 q 1.968748,-4.17448 8.549472,-4.17448 2.552081,0 4.229163,0.58333 1.677082,0.56511 2.497394,1.47656 0.820312,0.91146 1.148436,2.00521 0.346354,1.07552 0.346354,3.51823 v 6.43489 z m -8.476556,-2.46094 q -2.041665,-1.27604 -3.263018,-1.27604 -0.966145,0 -1.768227,0.56511 -0.783854,0.5651 -0.783854,1.64062 0,0.96614 0.638021,1.65885 0.63802,0.69271 1.640623,0.69271 1.567707,0 3.536455,-1.84114 z"
             style="font-family:Rockwell;-inkscape-font-specification:'Rockwell Bold';fill:#ffd17c;fill-opacity:1;stroke:none"
             id="path26361" /><path
             d="m 136.6361,202.09353 q 0,-1.27605 0.89323,-2.1875 0.91146,-0.91146 2.1875,-0.91146 1.29427,0 2.1875,0.91146 0.89323,0.91145 0.89323,2.1875 0,1.27604 -0.91146,2.18749 -0.89323,0.89323 -2.16927,0.89323 -1.25781,0 -2.16927,-0.91146 -0.91146,-0.91145 -0.91146,-2.16926 z m -2.47916,9.1328 V 207.143 h 8.31249 v 13.58072 h 2.625 v 4.0651 h -10.93749 v -4.0651 h 2.67968 v -9.49739 z"
             style="font-family:Rockwell;-inkscape-font-specification:'Rockwell Bold';fill:#ffd17c;fill-opacity:1;stroke:none"
             id="path26365" /><path
             d="m 172.36233,220.72372 v 4.0651 h -8.47656 v -1.38542 q -2.27864,1.64063 -4.81249,1.64063 -2.625,0 -4.53906,-1.49479 -1.89583,-1.49479 -1.89583,-4.01042 0,-2.53385 2.00521,-4.24739 2.0052,-1.71354 5.17707,-1.71354 1.76823,0 4.0651,0.89323 v -1.07552 q 0,-1.34896 -0.91145,-2.20573 -0.91146,-0.875 -2.44271,-0.875 -1.89583,0 -3.24479,1.38542 l -4.53906,-0.82031 q 1.96875,-4.17448 8.54948,-4.17448 2.55208,0 4.22916,0.58333 1.67708,0.56511 2.49739,1.47656 0.82031,0.91146 1.14844,2.00521 0.34635,1.07552 0.34635,3.51823 v 6.43489 z m -8.47656,-2.46094 q -2.04166,-1.27604 -3.26301,-1.27604 -0.96615,0 -1.76823,0.56511 -0.78385,0.5651 -0.78385,1.64062 0,0.96614 0.63802,1.65885 0.63802,0.69271 1.64062,0.69271 1.56771,0 3.53645,-1.84114 z"
             style="font-family:Rockwell;-inkscape-font-specification:'Rockwell Bold';fill:#ffd17c;fill-opacity:1;stroke:none"
             id="path26367" /></g><g
           id="g26376"
           transform="matrix(1.0879314,0,0,1.0879314,-73.916396,-343.31053)"
           style="fill:#ffd17c;fill-opacity:1"><path
             style="fill:#ffd17c;fill-opacity:1;stroke:none;stroke-width:0.181077"
             d="m 114.30071,206.77989 c -1.19808,-0.48407 -1.52699,-2.1182 -0.62887,-3.12434 l 0.52787,-0.59136 4.04684,-0.0905 c 3.64867,-0.0816 4.10197,-0.12618 4.6072,-0.4527 0.3082,-0.19918 3.63649,-3.55906 7.39619,-7.4664 5.55984,-5.77815 7.72206,-7.48821 8.25825,-7.63715 0.3626,-0.10072 8.10241,-0.089 10.11567,0.25773 0.30174,0.052 1.02867,0.55555 1.01149,1.77767 -0.0151,1.07346 -0.84031,1.79309 -1.00137,1.81737 -1.15737,0.17447 -2.88776,0.21223 -5.03601,0.3532 -1.47098,0.0965 -2.76629,-0.15454 -4.0191,0.33941 -1.01459,0.40003 -2.913,2.29139 -3.30555,2.69902 -0.31136,0.32331 -1.28143,1.19268 -4.93332,4.99549 -4.35363,4.53358 -6.83049,6.98069 -7.19367,7.1073 -0.66392,0.23144 -9.27762,0.24511 -9.8456,0.0156 z"
             id="path26370"
             sodipodi:nodetypes="cscsssssssssssscc" /><path
             style="fill:#ffd17c;fill-opacity:1;stroke-width:0.181077"
             d="m 127.77464,195.12499 c -0.19918,-0.11224 -1.42236,-1.01752 -2.32952,-1.97288 l -1.64938,-1.73699 -4.32618,-0.0933 c -4.87547,-0.10512 -5.30704,-0.2079 -5.79705,-1.38066 -0.26537,-0.63511 -0.24304,-1.44003 -0.0168,-2.29587 0.15788,-0.59736 4.0927,-0.39557 6.05213,-0.48551 2.56741,-0.11785 4.95421,0.0807 5.29797,0.17925 0.67939,0.19485 1.7863,1.20747 4.00855,3.6671 1.34806,1.49206 1.43013,1.63054 1.43013,2.41321 0,1.15945 -0.71585,1.89134 -1.84212,1.88342 -0.43093,-0.003 -0.6285,-0.0656 -0.82768,-0.17779 z"
             id="path26372"
             sodipodi:nodetypes="sscssssssscs" /><path
             style="fill:#ffd17c;fill-opacity:1;stroke-width:0.181077"
             d="m 135.86199,198.86945 c 0.19918,0.11224 1.42236,1.01752 2.32952,1.97288 l 1.64938,1.73699 4.32618,0.0933 c 4.87547,0.10512 5.30704,0.2079 5.79705,1.38066 0.26537,0.63511 0.24304,1.44003 0.0168,2.29587 -0.15788,0.59736 -4.0927,0.39557 -6.05213,0.48551 -2.56741,0.11785 -4.95421,-0.0807 -5.29797,-0.17925 -0.67939,-0.19485 -1.7863,-1.20747 -4.00855,-3.6671 -1.34806,-1.49206 -1.43013,-1.63054 -1.43013,-2.41321 0,-1.15945 0.71585,-1.89134 1.84212,-1.88342 0.43093,0.003 0.6285,0.0656 0.82768,0.17779 z"
             id="path26374"
             sodipodi:nodetypes="sscssssssscs" /></g></g><g
         aria-label="axia"
         transform="matrix(1.2163336,0,0,1.2163336,-134.69647,-336.47639)"
         id="g28814"
         style="font-weight:bold;font-size:37.3333px;-inkscape-font-specification:'sans-serif Bold';letter-spacing:5.32px;word-spacing:2.94px;white-space:pre;shape-inside:url(#rect26195);fill:#ffdda0;fill-opacity:1;stroke:#999999;stroke-width:12.3402;stroke-linecap:round;stroke-linejoin:round"><path
           d="m 94.746727,220.72372 v 4.0651 h -8.476556 v -1.38542 q -2.278643,1.64063 -4.812495,1.64063 -2.624998,0 -4.539059,-1.49479 -1.895832,-1.49479 -1.895832,-4.01042 0,-2.53385 2.005207,-4.24739 2.005206,-1.71354 5.177079,-1.71354 1.768227,0 4.0651,0.89323 v -1.07552 q 0,-1.34896 -0.911457,-2.20573 -0.911458,-0.875 -2.442706,-0.875 -1.895832,0 -3.244789,1.38542 l -4.539059,-0.82031 q 1.968748,-4.17448 8.549472,-4.17448 2.552081,0 4.229163,0.58333 1.677082,0.56511 2.497394,1.47656 0.820312,0.91146 1.148436,2.00521 0.346354,1.07552 0.346354,3.51823 v 6.43489 z m -8.476556,-2.46094 q -2.041665,-1.27604 -3.263018,-1.27604 -0.966145,0 -1.768227,0.56511 -0.783854,0.5651 -0.783854,1.64062 0,0.96614 0.638021,1.65885 0.63802,0.69271 1.640623,0.69271 1.567707,0 3.536455,-1.84114 z"
           style="font-family:Rockwell;-inkscape-font-specification:'Rockwell Bold';fill:#ffdda0;fill-opacity:1;stroke:none"
           id="path28808" /><path
           d="m 83.002691,268.10115 q 0,-1.27605 0.89323,-2.1875 0.91146,-0.91146 2.1875,-0.91146 1.29427,0 2.1875,0.91146 0.89323,0.91145 0.89323,2.1875 0,1.27604 -0.91146,2.18749 -0.89323,0.89323 -2.16927,0.89323 -1.25781,0 -2.16927,-0.91146 -0.91146,-0.91145 -0.91146,-2.16926 z m -2.47916,9.1328 v -4.08333 h 8.31249 v 13.58072 h 2.625 v 4.0651 h -10.93749 v -4.0651 h 2.67968 v -9.49739 z"
           style="font-family:Rockwell;-inkscape-font-specification:'Rockwell Bold';fill:#ffdda0;fill-opacity:1;stroke:none"
           id="path28810" /><path
           d="m 150.81596,296.81583 v 4.0651 h -8.47656 v -1.38542 q -2.27864,1.64063 -4.81249,1.64063 -2.625,0 -4.53906,-1.49479 -1.89583,-1.49479 -1.89583,-4.01042 0,-2.53385 2.00521,-4.24739 2.0052,-1.71354 5.17707,-1.71354 1.76823,0 4.0651,0.89323 v -1.07552 q 0,-1.34896 -0.91145,-2.20573 -0.91146,-0.875 -2.44271,-0.875 -1.89583,0 -3.24479,1.38542 l -4.53906,-0.82031 q 1.96875,-4.17448 8.54948,-4.17448 2.55208,0 4.22916,0.58333 1.67708,0.56511 2.49739,1.47656 0.82031,0.91146 1.14844,2.00521 0.34635,1.07552 0.34635,3.51823 v 6.43489 z m -8.47656,-2.46094 q -2.04166,-1.27604 -3.26301,-1.27604 -0.96615,0 -1.76823,0.56511 -0.78385,0.5651 -0.78385,1.64062 0,0.96614 0.63802,1.65885 0.63802,0.69271 1.64062,0.69271 1.56771,0 3.53645,-1.84114 z"
           style="font-family:Rockwell;-inkscape-font-specification:'Rockwell Bold';fill:#ffdda0;fill-opacity:1;stroke:none"
           id="path28812" /></g></g></g></svg>
