<?xml version="1.0" encoding="UTF-8" standalone="no"?>
<!-- Created with Inkscape (http://www.inkscape.org/) -->

<svg
   width="463.22168mm"
   height="151.93396mm"
   viewBox="0 0 463.22168 151.93396"
   version="1.1"
   id="svg5"
   xml:space="preserve"
   inkscape:version="1.2.1 (9c6d41e410, 2022-07-14)"
   sodipodi:docname="AXIA-LOGO.svg"
   xmlns:inkscape="http://www.inkscape.org/namespaces/inkscape"
   xmlns:sodipodi="http://sodipodi.sourceforge.net/DTD/sodipodi-0.dtd"
   xmlns="http://www.w3.org/2000/svg"
   xmlns:svg="http://www.w3.org/2000/svg"><sodipodi:namedview
     id="namedview7"
     pagecolor="#ffffff"
     bordercolor="#000000"
     borderopacity="0.25"
     inkscape:showpageshadow="2"
     inkscape:pageopacity="0.0"
     inkscape:pagecheckerboard="0"
     inkscape:deskcolor="#d1d1d1"
     inkscape:document-units="mm"
     showgrid="false"
     showguides="true"
     inkscape:zoom="0.044488678"
     inkscape:cx="-22972.137"
     inkscape:cy="-1101.4038"
     inkscape:window-width="1366"
     inkscape:window-height="745"
     inkscape:window-x="-8"
     inkscape:window-y="-8"
     inkscape:window-maximized="1"
     inkscape:current-layer="layer1"><sodipodi:guide
       position="124.33183,-2.2241463"
       orientation="0,-1"
       id="guide61917"
       inkscape:locked="false" /></sodipodi:namedview><defs
     id="defs2"><rect
       x="-7390.749"
       y="103.31155"
       width="842.38647"
       height="603.97522"
       id="rect61621" /><rect
       x="-6366.7886"
       y="174.20163"
       width="1595.9117"
       height="1219.4114"
       id="rect61623" /></defs><g
     inkscape:label="Layer 1"
     inkscape:groupmode="layer"
     id="layer1"
     transform="translate(5674.1432,-1838.3486)"><g
       id="g61931"><g
         id="g53515"
         transform="matrix(0.69970406,-0.14518339,0.15072137,0.6739947,-5555.4202,726.60486)"
         inkscape:export-filename="axiaLogo.svg"
         inkscape:export-xdpi="96"
         inkscape:export-ydpi="96"
         style="stroke:#ffd17c;stroke-opacity:1"><g
           id="g53513"
           transform="translate(-346.42475,38.656839)"
           style="stroke:#ffd17c;stroke-opacity:1"><g
             id="g53507"
             transform="matrix(0.80623544,0,0,0.80623544,-308.22493,618.4427)"
             style="fill:none;fill-opacity:1;stroke:#ffd17c;stroke-width:16.5039;stroke-dasharray:none;stroke-opacity:1"><path
               style="fill:none;fill-opacity:1;stroke:#ffd17c;stroke-width:16.5039;stroke-linecap:round;stroke-linejoin:round;stroke-dasharray:none;stroke-opacity:1"
               d="m 513.5231,1329.4311 0.76892,-0.5018 35.15259,-17.6972 1.1246,-0.6638 4.2504,7.715 c -0.66217,0.2849 -0.3736,0.3387 -1.16937,0.7127 -8.1691,3.8394 -24.15051,12.222 -35.48891,18.1274 -0.33483,0.1744 -0.8954,0.3466 -1.2214,0.5165 z"
               id="path53501"
               sodipodi:nodetypes="cccccsscc" /><path
               id="path53503"
               style="fill:none;fill-opacity:1;stroke:#ffd17c;stroke-width:16.5039;stroke-linecap:round;stroke-linejoin:round;stroke-dasharray:none;stroke-opacity:1"
               d="m 464.07995,1353.0189 c -12.31733,6.6361 -20.15862,19.3394 -20.57017,33.3246 -0.41157,13.9852 6.6691,27.1276 18.57477,34.4766 10.10246,6.2359 22.37677,7.4966 33.38856,3.6809 3.81626,-1.6298 6.89428,-2.2837 5.21314,-5.9381 -0.53582,-1.0746 -1.32401,-2.3458 -2.49835,-2.5951 -3.85291,-0.8173 -4.2263,3.0567 -10.94512,4.4521 -11.80509,2.4517 -25.29191,-1.2407 -32.74522,-15.3658 -13.90167,-26.3455 13.72506,-41.9581 13.85707,-41.9052 l 2.40128,-1.4776 46.81506,-24.1496 c 3.77275,-2.9675 -0.0855,-10.6203 -4.12292,-8.2678 z"
               sodipodi:nodetypes="cssccsssccccc" /><path
               id="path53505"
               style="fill:none;fill-opacity:1;stroke:#ffd17c;stroke-width:16.5039;stroke-linecap:round;stroke-linejoin:round;stroke-dasharray:none;stroke-opacity:1"
               d="m 602.95048,1293.4793 c 12.08991,-7.0417 19.50472,-19.9987 19.45123,-33.9897 -0.0533,-13.9912 -7.56693,-26.891 -19.71022,-33.8403 -10.30414,-5.8967 -22.61358,-6.7489 -33.4925,-2.5692 -3.75997,1.7557 -6.81449,2.5115 -5.01284,6.108 0.57072,1.0564 1.40123,2.3004 2.5832,2.5107 3.87792,0.6887 4.12234,-3.1955 10.79109,-4.8134 11.71715,-2.8427 25.31918,0.3995 33.23777,14.2691 14.76953,25.8689 -12.32306,42.391 -12.45675,42.3425 l -2.35088,1.5567 -45.98659,25.692 c -3.72555,1.4823 0.43845,10.6115 4.39543,8.1262 z"
               sodipodi:nodetypes="cssccsssccccc" /></g><path
             id="path53509"
             style="fill:none;fill-opacity:1;stroke:#ffd17c;stroke-width:12.1978;stroke-linecap:round;stroke-linejoin:round;stroke-dasharray:none;stroke-opacity:1"
             d="m 91.486176,1623.2507 c -4.586573,-9.268 -13.769156,-15.3849 -24.088723,-16.0468 -10.319546,-0.6619 -20.208306,4.2319 -25.941271,12.838 -4.864639,7.3025 -6.109901,16.3367 -3.573303,24.5681 1.10618,2.8606 1.510491,5.1509 4.252792,4.0026 0.807455,-0.3682 1.766585,-0.9179 1.980795,-1.779 0.702283,-2.825 -2.149714,-3.2 -3.008476,-8.1984 -1.50885,-8.7825 1.56369,-18.6501 12.187807,-23.794 19.815782,-9.5943 30.640967,11.2116 30.598536,11.3077 l 1.029943,1.8116 16.640104,35.1976 c 0.90635,2.8215 7.84678,0.2087 6.21249,-2.8337 z"
             sodipodi:nodetypes="cssccsssccccc" /><path
             id="path53511"
             style="fill:none;fill-opacity:1;stroke:#ffd17c;stroke-width:11.9235;stroke-linecap:round;stroke-linejoin:round;stroke-dasharray:none;stroke-opacity:1"
             d="m 148.07964,1748.501 c 4.48343,9.0595 13.45952,15.0389 23.54701,15.6859 10.08748,0.647 19.75387,-4.1368 25.3579,-12.5493 4.75525,-7.1383 5.97251,-15.9692 3.49295,-24.0156 -1.08131,-2.7963 -1.47652,-5.035 -4.15716,-3.9126 -0.78929,0.36 -1.72685,0.8973 -1.93625,1.739 -0.68648,2.7615 2.10138,3.128 2.94083,8.0141 1.47492,8.585 -1.52853,18.2306 -11.91373,23.2589 -19.37016,9.3785 -29.95191,-10.9595 -29.91044,-11.0535 l -1.00677,-1.7708 -16.26591,-34.4062 c -0.88597,-2.758 -7.67032,-0.2039 -6.07279,2.7701 z"
             sodipodi:nodetypes="cssccsssccccc" /></g></g><text
         xml:space="preserve"
         transform="matrix(0.74104272,0,0,0.74104272,-441.04088,1734.317)"
         id="text61605"
         style="font-style:normal;font-variant:normal;font-weight:normal;font-stretch:normal;font-size:266.667px;font-family:Gigi;-inkscape-font-specification:Gigi;text-align:center;white-space:pre;shape-inside:url(#rect61621);display:inline;fill:#ffd17c;fill-opacity:1;stroke:#ffffff;stroke-width:50.2904;stroke-linecap:round;stroke-linejoin:round;stroke-dasharray:none;stroke-opacity:1"><tspan
           x="-7068.1896"
           y="345.41269"
           id="tspan63789"><tspan
             style="font-family:'Century Gothic';-inkscape-font-specification:'Century Gothic';stroke:none"
             id="tspan63787">A</tspan></tspan></text><text
         xml:space="preserve"
         transform="matrix(0.32855069,0,0,0.32855069,-3453.6416,1748.9862)"
         id="text61609"
         style="font-style:normal;font-variant:normal;font-weight:normal;font-stretch:normal;font-size:605.07px;font-family:'Franklin Gothic Book';-inkscape-font-specification:'Franklin Gothic Book, ';text-align:center;white-space:pre;shape-inside:url(#rect61623);display:inline;fill:#ffd17c;fill-opacity:1;stroke:none;stroke-width:50.2904;stroke-linecap:round;stroke-linejoin:round;stroke-dasharray:none;stroke-opacity:1"><tspan
           x="-5836.0624"
           y="725.79235"
           id="tspan63793"><tspan
             style="font-family:'Century Gothic';-inkscape-font-specification:'Century Gothic'"
             id="tspan63791">ia</tspan></tspan></text></g></g></svg>
