<svg width="1162" height="284" viewBox="0 0 1162 284" fill="none" xmlns="http://www.w3.org/2000/svg">
<path d="M370.795 246.671V95.6327H393.267L395.407 107.824H396.477C402.898 99.4736 413.809 93.4924 429.001 93.4924C456.805 93.4924 479.067 116.175 479.067 149.75C479.067 183.324 456.824 206.007 429.001 206.007C414.019 206.007 403.548 199.796 397.987 192.745H396.917V246.652H370.814L370.795 246.671ZM452.945 149.769C452.945 130.086 440.314 117.685 424.912 117.685C409.51 117.685 396.879 130.086 396.879 149.769C396.879 169.451 409.51 181.853 424.912 181.853C440.314 181.853 452.945 169.451 452.945 149.769Z" fill="white"/>
<path d="M492.309 149.75C492.309 117.016 515.833 93.4924 547.286 93.4924C578.74 93.4924 602.263 117.016 602.263 149.75C602.263 182.484 578.74 206.007 547.286 206.007C515.833 206.007 492.309 182.254 492.309 149.75ZM575.95 149.75C575.95 130.488 563.109 117.665 547.286 117.665C531.464 117.665 518.412 130.507 518.412 149.75C518.412 168.992 531.464 181.624 547.286 181.624C563.109 181.624 575.95 169.012 575.95 149.75Z" fill="white"/>
<path d="M621.181 203.886V54.1277H647.284V203.886H621.181Z" fill="white"/>
<path d="M744.186 95.6327H771.99L724.925 227.199C720.224 240.25 713.803 246.671 696.891 246.671H671.648V222.498H693.051C696.911 222.498 699.032 220.568 700.331 217.358L702.892 210.306L658.826 95.6327H686.63L714.663 170.731H718.943L744.186 95.6327Z" fill="white"/>
<path d="M776.978 209.236H803.501C804.571 216.287 811.622 225.918 828.324 225.918C843.936 225.918 854.217 216.077 854.217 201.096V185.904H853.147C847.376 192.114 836.674 197.675 822.973 197.675C795.17 197.675 773.767 176.273 773.767 145.469C773.767 114.665 795.17 93.4924 822.973 93.4924C837.305 93.4924 847.796 99.2634 854.427 107.404H855.497L857.637 95.6327H880.32V201.096C880.32 229.759 861.058 248.811 828.324 248.811C791.749 248.811 777.627 224.848 776.978 209.236ZM854.217 145.488C854.217 128.596 842.235 116.825 827.044 116.825C811.852 116.825 800.081 128.596 800.081 145.488C800.081 162.381 812.062 174.362 827.044 174.362C842.025 174.362 854.217 162.591 854.217 145.488Z" fill="white"/>
<path d="M898.454 149.75C898.454 117.016 921.977 93.4924 953.431 93.4924C984.885 93.4924 1008.41 117.016 1008.41 149.75C1008.41 182.484 984.885 206.007 953.431 206.007C921.977 206.007 898.454 182.254 898.454 149.75ZM982.095 149.75C982.095 130.488 969.253 117.665 953.431 117.665C937.609 117.665 924.557 130.507 924.557 149.75C924.557 168.992 937.609 181.624 953.431 181.624C969.253 181.624 982.095 169.012 982.095 149.75Z" fill="white"/>
<path d="M1026.58 203.886V95.6327H1049.03L1051.17 105.894H1052.24C1056.52 100.983 1067.23 93.4924 1083.47 93.4924C1108.29 93.4924 1126.25 111.455 1126.25 138.838V203.867H1100.15V142.259C1100.15 128.347 1090.31 118.296 1076.84 118.296C1063.37 118.296 1052.66 128.787 1052.66 142.259V203.867H1026.56L1026.58 203.886Z" fill="white"/>
<path d="M230.322 191.235L294.49 154.183C297.892 152.215 299.994 148.565 299.994 144.647V70.5424C299.994 66.625 297.892 62.9751 294.49 61.0069L230.322 23.9544C226.921 21.9861 222.697 22.0052 219.315 23.9544L155.147 61.0069C151.745 62.9751 149.643 66.625 149.643 70.5424V202.968L104.641 228.938L59.6396 202.968V151.011L104.641 125.041L134.318 142.182V107.327L110.145 93.3586C108.482 92.4032 106.572 91.8872 104.641 91.8872C102.711 91.8872 100.801 92.4032 99.1381 93.3586L34.9697 130.411C31.5683 132.379 29.4663 136.029 29.4663 139.947V214.052C29.4663 217.969 31.5683 221.619 34.9697 223.587L99.1381 260.64C102.539 262.589 106.743 262.589 110.145 260.64L174.313 223.587C177.715 221.619 179.817 217.969 179.817 214.052V81.6256L180.619 81.167L224.799 55.6564L269.801 81.6256V133.583L224.799 159.553L195.161 142.45V177.305L219.296 191.235C222.698 193.185 226.921 193.185 230.303 191.235H230.322Z" fill="url(#paint0_linear_1103_88)"/>
<defs>
<linearGradient id="paint0_linear_1103_88" x1="28.5873" y1="221.313" x2="288.375" y2="70.5233" gradientUnits="userSpaceOnUse">
<stop stop-color="#A726C1"/>
<stop offset="0.88" stop-color="#803BDF"/>
<stop offset="1" stop-color="#7B3FE4"/>
</linearGradient>
</defs>
</svg>
