<?xml version="1.0" encoding="UTF-8" standalone="no"?>
<!-- Created with Inkscape (http://www.inkscape.org/) -->

<svg
   width="410.35718mm"
   height="410.35724mm"
   viewBox="0 0 410.35718 410.35724"
   version="1.1"
   id="svg5"
   xml:space="preserve"
   inkscape:version="1.2.1 (9c6d41e410, 2022-07-14)"
   sodipodi:docname="AXIA-LOGO.svg"
   xmlns:inkscape="http://www.inkscape.org/namespaces/inkscape"
   xmlns:sodipodi="http://sodipodi.sourceforge.net/DTD/sodipodi-0.dtd"
   xmlns:xlink="http://www.w3.org/1999/xlink"
   xmlns="http://www.w3.org/2000/svg"
   xmlns:svg="http://www.w3.org/2000/svg"><sodipodi:namedview
     id="namedview7"
     pagecolor="#ffffff"
     bordercolor="#000000"
     borderopacity="0.25"
     inkscape:showpageshadow="2"
     inkscape:pageopacity="0.0"
     inkscape:pagecheckerboard="0"
     inkscape:deskcolor="#d1d1d1"
     inkscape:document-units="mm"
     showgrid="false"
     showguides="true"
     inkscape:zoom="0.044488678"
     inkscape:cx="-13284.279"
     inkscape:cy="1326.1801"
     inkscape:window-width="1366"
     inkscape:window-height="745"
     inkscape:window-x="-8"
     inkscape:window-y="-8"
     inkscape:window-maximized="1"
     inkscape:current-layer="layer1"><sodipodi:guide
       position="-604.24629,-277.36438"
       orientation="0,-1"
       id="guide61917"
       inkscape:locked="false" /></sodipodi:namedview><defs
     id="defs2"><linearGradient
       inkscape:collect="always"
       id="linearGradient17706"><stop
         style="stop-color:#8f3b1c;stop-opacity:1;"
         offset="0"
         id="stop17702" /><stop
         style="stop-color:#d4880c;stop-opacity:1;"
         offset="1"
         id="stop17704" /></linearGradient><linearGradient
       inkscape:collect="always"
       id="linearGradient16720"><stop
         style="stop-color:#842e1f;stop-opacity:1;"
         offset="0"
         id="stop16716" /><stop
         style="stop-color:#f5b13b;stop-opacity:1;"
         offset="1"
         id="stop16718" /></linearGradient><linearGradient
       inkscape:collect="always"
       id="linearGradient15383"><stop
         style="stop-color:#842e1f;stop-opacity:1;"
         offset="0"
         id="stop15379" /><stop
         style="stop-color:#da8f0a;stop-opacity:1;"
         offset="1"
         id="stop15381" /></linearGradient><radialGradient
       inkscape:collect="always"
       xlink:href="#linearGradient17706"
       id="radialGradient65169"
       gradientUnits="userSpaceOnUse"
       gradientTransform="matrix(1.5311621,-0.30146644,0.35430686,1.7995411,-752.0304,-897.58059)"
       cx="532.94739"
       cy="1323.5673"
       fx="532.94739"
       fy="1323.5673"
       r="89.454613" /><radialGradient
       inkscape:collect="always"
       xlink:href="#linearGradient17706"
       id="radialGradient65171"
       gradientUnits="userSpaceOnUse"
       gradientTransform="matrix(1.3352474,-0.11692644,0.10755537,1.228234,-321.02596,-239.76728)"
       cx="532.94739"
       cy="1323.5673"
       fx="532.94739"
       fy="1323.5673"
       r="89.454613" /><radialGradient
       inkscape:collect="always"
       xlink:href="#linearGradient17706"
       id="radialGradient65173"
       gradientUnits="userSpaceOnUse"
       gradientTransform="matrix(1.3352474,-0.11692644,0.10755537,1.228234,-321.02596,-239.76728)"
       cx="535.2854"
       cy="1324.8516"
       fx="535.2854"
       fy="1324.8516"
       r="89.454613" /><radialGradient
       inkscape:collect="always"
       xlink:href="#linearGradient17706"
       id="radialGradient65175"
       gradientUnits="userSpaceOnUse"
       gradientTransform="matrix(1.3352474,-0.11692644,0.10755537,1.228234,-321.02596,-239.76728)"
       cx="532.94739"
       cy="1323.5673"
       fx="532.94739"
       fy="1323.5673"
       r="89.454613" /><radialGradient
       inkscape:collect="always"
       xlink:href="#linearGradient16720"
       id="radialGradient65177"
       gradientUnits="userSpaceOnUse"
       gradientTransform="matrix(0.97711138,-0.02601298,0.02483329,0.93279962,-601.91191,406.53315)"
       cx="683.21307"
       cy="1354.1339"
       fx="683.21307"
       fy="1354.1339"
       r="107.29645" /><radialGradient
       inkscape:collect="always"
       xlink:href="#linearGradient15383"
       id="radialGradient65179"
       gradientUnits="userSpaceOnUse"
       gradientTransform="matrix(0.7224683,0,0,0.74970008,-370.86334,668.93201)"
       cx="710.2417"
       cy="1406.8112"
       fx="710.2417"
       fy="1406.8112"
       r="107.29645" /></defs><g
     inkscape:label="Layer 1"
     inkscape:groupmode="layer"
     id="layer1"
     transform="translate(4945.5651,-1304.7851)"><g
       id="g65167"
       transform="translate(-95.155297,874.23929)"><circle
         style="fill:#000000;fill-opacity:0;stroke:none;stroke-width:12.4069;stroke-linecap:round;stroke-linejoin:round;stroke-dasharray:none;stroke-opacity:1"
         id="circle64987"
         cx="4645.2314"
         cy="635.72437"
         r="205.17862"
         transform="scale(-1,1)" /><path
         id="path64989"
         style="fill:none;fill-opacity:0.33829;stroke:#ffffff;stroke-width:4.09085;stroke-linecap:round;stroke-linejoin:round;stroke-dasharray:24.5449, 24.5449;stroke-dashoffset:0;stroke-opacity:1"
         d="m -4451.0952,635.72197 a 194.81373,197.7799 0 0 1 -194.8138,197.7799 194.81373,197.7799 0 0 1 -194.8137,-197.7799 194.81373,197.7799 0 0 1 194.8137,-197.7799 194.81373,197.7799 0 0 1 194.8138,197.7799 z" /><path
         id="path64991"
         style="fill:none;fill-opacity:0.33829;stroke:#ffffff;stroke-width:3.17814;stroke-linecap:round;stroke-linejoin:round;stroke-dasharray:19.0688, 19.0688;stroke-dashoffset:0;stroke-opacity:1"
         d="m -4559.2502,597.45647 a 94.598818,96.039154 0 0 1 -48.9135,126.4163 94.598818,96.039154 0 0 1 -124.5204,-49.6581 94.598818,96.039154 0 0 1 48.9134,-126.4164 94.598818,96.039154 0 0 1 124.5205,49.6582 z" /><path
         id="path64993"
         style="fill:#ffffff;fill-opacity:1;stroke-width:1.43918;stroke-linecap:round;stroke-linejoin:round;stroke-dasharray:8.63507, 8.63507"
         d="m -4770.3581,657.99587 a 5.800402,5.8887173 0 0 1 -5.8003,5.8887 5.800402,5.8887173 0 0 1 -5.8005,-5.8887 5.800402,5.8887173 0 0 1 5.8005,-5.8887 5.800402,5.8887173 0 0 1 5.8003,5.8887 z" /><path
         id="path64995"
         style="fill:#ffffff;fill-opacity:1;stroke-width:2.46037;stroke-linecap:round;stroke-linejoin:round;stroke-dasharray:14.7623, 14.7623"
         d="m -4725.0844,515.92857 a 9.9161848,10.067165 0 0 1 -9.9162,10.0672 9.9161848,10.067165 0 0 1 -9.9162,-10.0672 9.9161848,10.067165 0 0 1 9.9162,-10.0671 9.9161848,10.067165 0 0 1 9.9162,10.0671 z" /><path
         id="path64997"
         style="fill:#ffffff;fill-opacity:1;stroke-width:1.77957;stroke-linecap:round;stroke-linejoin:round;stroke-dasharray:10.6775, 10.6775"
         d="m -4685.2985,779.17087 a 7.1723278,7.2815315 0 0 1 -7.1724,7.2816 7.1723278,7.2815315 0 0 1 -7.1723,-7.2816 7.1723278,7.2815315 0 0 1 7.1723,-7.2815 7.1723278,7.2815315 0 0 1 7.1724,7.2815 z" /><path
         id="path64999"
         style="fill:#ffffff;fill-opacity:1;stroke-width:1.43918;stroke-linecap:round;stroke-linejoin:round;stroke-dasharray:8.63507, 8.63507"
         d="m -4678.3985,580.03917 a 5.8003987,5.8887138 0 0 1 -5.8004,5.8887 5.8003987,5.8887138 0 0 1 -5.8004,-5.8887 5.8003987,5.8887138 0 0 1 5.8004,-5.8887 5.8003987,5.8887138 0 0 1 5.8004,5.8887 z" /><path
         id="path65001"
         style="fill:#ffffff;fill-opacity:1;stroke-width:1.43918;stroke-linecap:round;stroke-linejoin:round;stroke-dasharray:8.63507, 8.63507"
         d="m -4491.8567,701.17317 a 5.800402,5.8887173 0 0 1 -5.8004,5.8888 5.800402,5.8887173 0 0 1 -5.8004,-5.8888 5.800402,5.8887173 0 0 1 5.8004,-5.8887 5.800402,5.8887173 0 0 1 5.8004,5.8887 z" /><path
         id="path65003"
         style="fill:#ffffff;fill-opacity:1;stroke-width:1.77957;stroke-linecap:round;stroke-linejoin:round;stroke-dasharray:10.6775, 10.6775"
         d="m -4522.0392,527.07107 a 7.1723278,7.2815315 0 0 1 -7.1723,7.2816 7.1723278,7.2815315 0 0 1 -7.1723,-7.2816 7.1723278,7.2815315 0 0 1 7.1723,-7.2815 7.1723278,7.2815315 0 0 1 7.1723,7.2815 z" /><path
         id="path65005"
         style="fill:#ffffff;fill-opacity:1;stroke-width:1.43918;stroke-linecap:round;stroke-linejoin:round;stroke-dasharray:8.63507, 8.63507"
         d="m -4550.8497,788.92057 a 5.8003987,5.8887138 0 0 1 -5.8004,5.8888 5.8003987,5.8887138 0 0 1 -5.8003,-5.8888 5.8003987,5.8887138 0 0 1 5.8003,-5.8887 5.8003987,5.8887138 0 0 1 5.8004,5.8887 z" /><path
         id="path65007"
         style="fill:#ffffff;fill-opacity:1;stroke-width:2.00679;stroke-linecap:round;stroke-linejoin:round;stroke-dasharray:12.0408, 12.0408"
         d="m -4574.4078,684.95147 a 8.0881221,8.2112693 0 0 1 -8.0881,8.2113 8.0881221,8.2112693 0 0 1 -8.0881,-8.2113 8.0881221,8.2112693 0 0 1 8.0881,-8.2113 8.0881221,8.2112693 0 0 1 8.0881,8.2113 z" /><g
         id="g65023"
         transform="matrix(0.6222689,-0.12911617,0.13404127,0.59940476,-4733.0992,-428.94929)"><g
           id="g65021"
           transform="translate(-346.42475,38.656839)"><g
             id="g65015"
             transform="matrix(0.80623544,0,0,0.80623544,-308.22493,618.4427)"
             style="fill:none;fill-opacity:1;stroke:url(#radialGradient65175);stroke-width:16.5039;stroke-dasharray:none;stroke-opacity:1"><path
               style="fill:none;fill-opacity:1;stroke:url(#radialGradient65169);stroke-width:16.5039;stroke-linecap:round;stroke-linejoin:round;stroke-dasharray:none;stroke-opacity:1"
               d="m 513.5231,1329.4311 0.76892,-0.5018 35.15259,-17.6972 1.1246,-0.6638 4.2504,7.715 c -0.66217,0.2849 -0.3736,0.3387 -1.16937,0.7127 -8.1691,3.8394 -24.15051,12.222 -35.48891,18.1274 -0.33483,0.1744 -0.8954,0.3466 -1.2214,0.5165 z"
               id="path65009"
               sodipodi:nodetypes="cccccsscc" /><path
               id="path65011"
               style="fill:none;fill-opacity:1;stroke:url(#radialGradient65171);stroke-width:16.5039;stroke-linecap:round;stroke-linejoin:round;stroke-dasharray:none;stroke-opacity:1"
               d="m 464.07995,1353.0189 c -12.31733,6.6361 -20.15862,19.3394 -20.57017,33.3246 -0.41157,13.9852 6.6691,27.1276 18.57477,34.4766 10.10246,6.2359 22.37677,7.4966 33.38856,3.6809 3.81626,-1.6298 6.89428,-2.2837 5.21314,-5.9381 -0.53582,-1.0746 -1.32401,-2.3458 -2.49835,-2.5951 -3.85291,-0.8173 -4.2263,3.0567 -10.94512,4.4521 -11.80509,2.4517 -25.29191,-1.2407 -32.74522,-15.3658 -13.90167,-26.3455 13.72506,-41.9581 13.85707,-41.9052 l 2.40128,-1.4776 46.81506,-24.1496 c 3.77275,-2.9675 -0.0855,-10.6203 -4.12292,-8.2678 z"
               sodipodi:nodetypes="cssccsssccccc" /><path
               id="path65013"
               style="fill:none;fill-opacity:1;stroke:url(#radialGradient65173);stroke-width:16.5039;stroke-linecap:round;stroke-linejoin:round;stroke-dasharray:none;stroke-opacity:1"
               d="m 602.95048,1293.4793 c 12.08991,-7.0417 19.50472,-19.9987 19.45123,-33.9897 -0.0533,-13.9912 -7.56693,-26.891 -19.71022,-33.8403 -10.30414,-5.8967 -22.61358,-6.7489 -33.4925,-2.5692 -3.75997,1.7557 -6.81449,2.5115 -5.01284,6.108 0.57072,1.0564 1.40123,2.3004 2.5832,2.5107 3.87792,0.6887 4.12234,-3.1955 10.79109,-4.8134 11.71715,-2.8427 25.31918,0.3995 33.23777,14.2691 14.76953,25.8689 -12.32306,42.391 -12.45675,42.3425 l -2.35088,1.5567 -45.98659,25.692 c -3.72555,1.4823 0.43845,10.6115 4.39543,8.1262 z"
               sodipodi:nodetypes="cssccsssccccc" /></g><path
             id="path65017"
             style="fill:none;fill-opacity:1;stroke:url(#radialGradient65177);stroke-width:12.1978;stroke-linecap:round;stroke-linejoin:round;stroke-dasharray:none;stroke-opacity:1"
             d="m 91.486176,1623.2507 c -4.586573,-9.268 -13.769156,-15.3849 -24.088723,-16.0468 -10.319546,-0.6619 -20.208306,4.2319 -25.941271,12.838 -4.864639,7.3025 -6.109901,16.3367 -3.573303,24.5681 1.10618,2.8606 1.510491,5.1509 4.252792,4.0026 0.807455,-0.3682 1.766585,-0.9179 1.980795,-1.779 0.702283,-2.825 -2.149714,-3.2 -3.008476,-8.1984 -1.50885,-8.7825 1.56369,-18.6501 12.187807,-23.794 19.815782,-9.5943 30.640967,11.2116 30.598536,11.3077 l 1.029943,1.8116 16.640104,35.1976 c 0.90635,2.8215 7.84678,0.2087 6.21249,-2.8337 z"
             sodipodi:nodetypes="cssccsssccccc" /><path
             id="path65019"
             style="fill:none;fill-opacity:1;stroke:url(#radialGradient65179);stroke-width:11.9235;stroke-linecap:round;stroke-linejoin:round;stroke-dasharray:none;stroke-opacity:1"
             d="m 148.07964,1748.501 c 4.48343,9.0595 13.45952,15.0389 23.54701,15.6859 10.08748,0.647 19.75387,-4.1368 25.3579,-12.5493 4.75525,-7.1383 5.97251,-15.9692 3.49295,-24.0156 -1.08131,-2.7963 -1.47652,-5.035 -4.15716,-3.9126 -0.78929,0.36 -1.72685,0.8973 -1.93625,1.739 -0.68648,2.7615 2.10138,3.128 2.94083,8.0141 1.47492,8.585 -1.52853,18.2306 -11.91373,23.2589 -19.37016,9.3785 -29.95191,-10.9595 -29.91044,-11.0535 l -1.00677,-1.7708 -16.26591,-34.4062 c -0.88597,-2.758 -7.67032,-0.2039 -6.07279,2.7701 z"
             sodipodi:nodetypes="cssccsssccccc" /></g></g><g
         id="g65101"
         transform="matrix(0.97656396,0,0,0.99143285,-4848.7869,506.63457)"><path
           fill="#e9e8e6"
           d="m 65,27.2 c 0,2 -0.8,3.4 -2,4 -0.2,0.1 -0.3,0.1 -0.5,0.2 0,0 0,0 0,0 -6.5,2.4 -13,5.5 -19.5,9 -3.8,2.1 -7.6,4.3 -11.3,6.7 -6.5,4.2 -13.4,9.3 -19.7,14.2 0.2,-1.4 0.3,-2.7 0.3,-3.9 C 12.2,53 10.7,49.9 7.9,48 6.6,47.1 5,46.5 3.2,46.1 c 0.6,-0.2 1.1,-0.4 1.7,-0.6 6.9,-2.6 13.6,-5.6 20,-9 3.6,-1.9 7.1,-3.9 10.5,-6.1 6.6,-4.1 12.8,-8.7 18.8,-13.8 0,0 0,0 0,0 0,0 0.1,0 0.1,-0.1 0.4,-0.3 0.8,-0.5 1.2,-0.6 0,0 0,0 0.1,0 0.3,-0.1 0.6,-0.1 1,-0.1 0,0 0,0 0,0 v 0 c 0.1,0 0.2,0 0.2,0 0,0 0.1,0 0.1,0 0.7,0.1 1.4,0.4 2.1,0.8 0.2,0.1 0.5,0.3 0.7,0.4 3,2.3 5.3,6.6 5.3,10.2 z"
           id="path65025" /><path
           fill="#e9e8e6"
           d="m 62.9,25.2 c 0,2 -0.8,3.4 -2,4 -0.2,0.1 -0.3,0.1 -0.5,0.2 0,0 0,0 0,0 -6.5,2.4 -13,5.5 -19.5,9 -3.8,2.1 -7.6,4.3 -11.3,6.7 -5.7,3.6 -11.7,8 -17.3,12.4 -0.8,0.6 -1.6,1.3 -2.4,1.9 0.7,-5 0,-8.7 -2,-11.3 -0.8,-1 -1.8,-1.9 -3,-2.5 6.9,-2.6 13.6,-5.6 20,-9 3.6,-1.9 7.1,-3.9 10.5,-6.1 6.6,-4.1 12.8,-8.7 18.8,-13.8 0,0 0,0 0,0 0,0 0.1,0 0.1,-0.1 0.4,-0.3 0.8,-0.5 1.2,-0.6 0,0 0,0 0.1,0 0.3,-0.1 0.6,-0.1 1,-0.1 0,0 0,0 0,0 v 0 c 0.1,0 0.2,0 0.2,0 0,0 0.1,0 0.1,0 0.7,0.1 1.4,0.4 2.1,0.8 0.2,0.1 0.5,0.3 0.7,0.4 1.9,2.4 3.2,5.4 3.2,8.1 z"
           id="path65027" /><path
           fill="#d6d4d2"
           d="m 13.5,57.6 c 0,0.1 0,0.3 0,0.4 0,0.1 0,0.3 0,0.4 0,0.1 0,0.1 0,0.2 0,0.2 0,0.3 -0.1,0.5 C 12.8,62 10.3,63 7.3,61.2 3.8,59.2 1,54.4 1,50.4 c 0,-3.9 2.7,-5.5 6,-3.7 0.1,0 0.2,0.1 0.3,0.1 0,0 0.1,0 0.1,0.1 0.3,0.2 0.5,0.3 0.8,0.5 0.5,0.3 0.9,0.7 1.3,1.2 0.1,0.1 0.2,0.2 0.3,0.3 0.4,0.5 0.8,0.9 1.2,1.5 0.2,0.2 0.3,0.5 0.5,0.7 0,0.1 0.1,0.2 0.1,0.2 0.2,0.3 0.3,0.5 0.4,0.8 0,0 0,0 0,0 0.1,0.1 0.1,0.2 0.1,0.3 0.1,0.1 0.1,0.2 0.2,0.3 0.3,0.6 0.5,1.3 0.7,1.9 0.1,0.2 0.1,0.4 0.1,0.6 0,0.1 0.1,0.2 0.1,0.4 0.2,0.7 0.3,1.4 0.3,2 z"
           id="path65029" /><path
           fill="#c4c2c0"
           d="m 13.5,57.6 c 0,0.1 0,0.3 0,0.4 0,0.1 0,0.3 0,0.4 0,0.1 0,0.1 0,0.2 l -1.3,0.8 c 0,0 0,0 0,0 L 10.9,60 c -0.1,0.1 -0.2,0.1 -0.3,0.2 0,0 0,0 0,0 0,0 -0.1,0 -0.1,0 0,0 -0.1,0 -0.1,0 -0.1,0 -0.2,0 -0.2,0.1 0,0 -0.1,0 -0.1,0 0,0 -0.1,0 -0.1,0 -0.1,0 -0.2,0 -0.3,0 0,0 0,0 -0.1,0 -0.1,0 -0.1,0 -0.2,0 -0.1,0 -0.1,0 -0.2,0 -0.1,0 -0.3,0 -0.4,-0.1 0,0 -0.1,0 -0.1,0 -0.1,0 -0.1,0 -0.1,0 -0.1,0 -0.2,0 -0.3,-0.1 -0.1,0 -0.3,-0.1 -0.4,-0.2 0,0 -0.1,0 -0.1,-0.1 C 7.7,59.8 7.6,59.7 7.6,59.7 7.5,59.6 7.4,59.6 7.3,59.5 6.7,59.2 6.1,58.7 5.6,58.1 3.2,56 2.1,53 2.6,50.7 l 3.2,-1.9 0.3,-0.2 v 0 l 2.1,-1.2 c 0.5,0.3 0.9,0.7 1.3,1.2 0.1,0.1 0.2,0.2 0.3,0.3 0.4,0.5 0.8,0.9 1.2,1.5 0.2,0.2 0.3,0.5 0.5,0.7 0,0.1 0.1,0.2 0.1,0.2 0.2,0.3 0.3,0.5 0.4,0.8 0,0 0,0 0,0 0.1,0.1 0.1,0.2 0.1,0.3 0.1,0.1 0.1,0.2 0.2,0.3 0.3,0.6 0.5,1.3 0.7,1.9 0.1,0.2 0.1,0.4 0.1,0.6 0,0.1 0.1,0.2 0.1,0.4 0.2,0.7 0.3,1.4 0.3,2 z"
           id="path65031" /><path
           fill="#b2b0af"
           d="m 13,54.7 -2.5,1.5 v 0 l -0.3,0.2 -2.1,1.2 C 7.8,57.5 7.5,57.4 7.2,57.2 6.8,57 6.4,56.7 6,56.3 5.3,55.6 4.9,54.8 4.7,54 L 7.4,52.4 7.6,52.3 9,51.5 9.2,51.4 v 0 L 11,50.3 c 0.2,0.2 0.3,0.5 0.5,0.7 0,0.1 0.1,0.2 0.1,0.2 0.2,0.3 0.3,0.5 0.4,0.8 0,0 0,0 0,0 0.1,0.1 0.1,0.2 0.1,0.3 0.1,0.1 0.1,0.2 0.2,0.3 0.3,0.8 0.6,1.5 0.7,2.1 z"
           id="path65033" /><path
           fill="#c4c2c0"
           d="M 8.1,47.4 6,48.6 c 0,0 0,0 0,0 l -0.3,0.2 -3.2,1.9 c 0,-0.2 0.1,-0.3 0.2,-0.5 0,-0.1 0.1,-0.1 0.1,-0.2 0,0 0,0 0,0 0,-0.1 0.1,-0.1 0.1,-0.2 0,-0.1 0.1,-0.1 0.1,-0.2 0,0 0.1,-0.1 0.1,-0.1 0,0 0.1,-0.1 0.1,-0.1 0,0 0,0 0,0 0,0 0.1,-0.1 0.1,-0.1 0,0 0,0 0,0 0,0 0.1,-0.1 0.1,-0.1 0.1,0 0.1,-0.1 0.2,-0.1 l 1,-0.6 v 0 L 7.2,47 c 0.4,0.1 0.7,0.2 0.9,0.4 z"
           id="path65035" /><path
           fill="#b2b0af"
           d="m 10.9,50.4 -1.8,1.1 v 0 L 8.9,51.6 7.5,52.4 7.3,52.5 4.7,54 C 4.6,53.4 4.6,52.9 4.6,52.5 c 0,-0.1 0,-0.1 0,-0.2 0,0 0,-0.1 0,-0.1 0,0 0,-0.1 0,-0.1 0,-0.1 0.1,-0.1 0.1,-0.2 0,0 0,0 0,-0.1 0,0 0,-0.1 0.1,-0.1 0,0 0,0 0,0 0,0 0.1,-0.1 0.1,-0.1 0,0 0,0 0.1,-0.1 0,0 0,0 0,0 0,0 0,0 0.1,0 0,0 0,0 0,0 0,0 0,0 0,0 v 0 L 6,51.1 7.8,50.1 8,50 9.8,48.9 c 0.4,0.4 0.8,0.9 1.1,1.5 z"
           id="path65037" /><path
           fill="#b9baba"
           d="m 12,52.2 -1.9,1.1 -0.2,0.1 -1.5,0.8 -0.3,0.1 -0.8,0.5 v 0 l 0.8,-0.5 v 0 L 8.3,54.2 9.7,53.4 9.9,53.3 12,52.2 c 0,-0.1 0,0 0,0 z"
           id="path65039" /><path
           fill="#b9baba"
           d="m 12,52.1 -1.9,1.1 -0.2,0.1 -1.4,0.8 -0.2,0.1 v 0 L 7.5,54.7 C 7.4,54.7 7.4,54.6 7.3,54.5 7.1,54.5 7,54.2 7,54 l 1,-0.6 0.2,-0.1 v 0 l 1.3,-0.8 0.2,-0.1 v 0 l 1.9,-1.1 c 0.1,0.3 0.3,0.6 0.4,0.8 z"
           id="path65041" /><path
           fill="#d6d4d2"
           d="m 11.6,51.3 -1.9,1.1 v 0 l -0.2,0.1 -1.3,0.8 v 0 L 8,53.4 7,54 6.7,53.8 7.8,53.2 8,53.1 9.3,52.3 9.5,52.2 c 0,0 0,0 0,0 l 1.9,-1.1 c 0.1,0.1 0.1,0.2 0.2,0.2 z"
           id="path65043" /><path
           fill="#b9baba"
           d="m 12.2,52.5 -2,1.1 v 0 L 10,53.7 8.4,54.6 7.9,55 c 0,0 0,0 0,0 0,0 0,0 -0.1,0 0,0 0,0 -0.1,0 -0.1,0 -0.2,0 -0.3,-0.1 0,0 -0.1,0 -0.1,-0.1 l 0.8,-0.5 0.3,-0.1 1.5,-0.8 0.2,-0.1 1.9,-1.1 c 0.1,0.1 0.1,0.2 0.2,0.3 z"
           id="path65045" /><path
           fill="#b2b0af"
           d="M 13.2,55.3 10.3,57 v 0 l -0.9,0.5 c 0,0 -0.1,0 -0.1,0.1 0,0 -0.1,0 -0.1,0.1 -0.3,0.1 -0.7,0.1 -1.1,0 l 2.1,-1.2 0.3,-0.2 v 0 L 13,54.8 c 0.1,0.1 0.1,0.3 0.2,0.5 z"
           id="path65047" /><path
           fill="#c4c2c0"
           d="m 5,51.2 v 0 c 0.1,0 0.1,0 0,0 0.1,0 0,0 0,0 z"
           id="path65049" /><path
           fill="#b2b0af"
           d="m 12.3,52.8 -2,1.2 -0.2,0.1 -2,1.2 c 0,0 0.1,0 0.1,-0.1 0,0 0,0 0.1,-0.1 0,0 0,0 0,0 0,0 0,0 0,0 0,0 0,0 0,0 0,0 0,0 0,0 0,-0.1 0.1,-0.1 0.1,-0.2 0,0 0,0 0,-0.1 0,0 0,-0.1 0,-0.1 v 0 c 0,0 0,-0.1 0,-0.1 0,-0.1 0,-0.2 0,-0.3 0,0 0,0 0,0 0,-0.1 0,-0.2 0,-0.3 0,-0.1 0,-0.2 -0.1,-0.3 0,0 0,-0.1 0,-0.1 0,0 0,-0.1 0,-0.1 0,0 0,-0.1 0,-0.1 0,0 0,0 0,-0.1 0,0 0,0 0,-0.1 0,0 0,-0.1 0,-0.1 0,0 0,-0.1 0,-0.1 C 8,53 8,52.9 8,52.9 8,52.8 7.9,52.8 7.9,52.7 c 0,0 0,-0.1 -0.1,-0.1 0,0 -0.1,-0.1 -0.1,-0.1 0,0 -0.1,-0.1 -0.1,-0.1 0,0 -0.1,-0.1 -0.1,-0.1 0,0 0,-0.1 -0.1,-0.1 C 7.3,52 7.3,52 7.2,51.9 7.1,51.8 6.9,51.6 6.7,51.5 6.6,51.4 6.5,51.3 6.4,51.3 c 0,0 -0.1,-0.1 -0.1,-0.1 0,0 0,0 -0.1,0 -0.1,0 -0.2,-0.1 -0.3,-0.1 0,0 -0.1,0 -0.1,0 0,0 -0.1,0 -0.1,0 0,0 -0.1,0 -0.1,0 0,0 -0.1,0 -0.1,0 0,0 0,0 0,0 0,0 -0.1,0 -0.1,0 0,0 -0.1,0 -0.1,0 0,0 0,0 -0.1,0 -0.1,0 -0.1,0 -0.2,0.1 l 2.4,-1.4 0.2,-0.1 v 0 l 1.8,-1.1 c 0.1,0.1 0.2,0.2 0.3,0.3 0.4,0.5 0.8,0.9 1.2,1.5 0.2,0.2 0.3,0.5 0.5,0.7 0,0.1 0.1,0.2 0.1,0.2 0.2,0.3 0.3,0.5 0.4,0.8 0,0 0,0 0,0 0.1,0.1 0.1,0.2 0.1,0.3 0.2,0.2 0.3,0.3 0.3,0.4 z m 1.1,5.6 c 0,0.1 0,0.1 0,0.2 0,0.2 0,0.3 -0.1,0.5 l -2.2,1.3 c 0.1,-0.1 0.2,-0.1 0.3,-0.2 0,0 0.1,-0.1 0.1,-0.1 0.2,-0.2 0.4,-0.4 0.5,-0.7 0,0 0,0 0,0 0,-0.1 0.1,-0.2 0.1,-0.2 z"
           id="path65051" /><path
           fill="#eaeaea"
           d="M 12,58.9 13.5,58 c 0,0.1 0,0.3 0,0.4 l -1.2,0.7 z"
           id="path65053" /><path
           fill="#e9e8e6"
           d="m 10.4,54.2 c 0.3,1.2 0.2,2.3 -0.2,3 -0.7,1 -1.9,0.9 -3,0.3 C 6,56.8 4.9,55.4 4.5,53.9 4.3,52.6 4.3,51 5.7,51.1 c 1.2,0 2.4,1.6 2.7,2.9 0.1,0.5 0,1.1 -0.3,1.3 C 7.7,55.6 7.2,55.2 7,54.8 6.9,54.5 6.8,54.2 6.8,53.8 L 7,54 c 0,0.3 0,0.5 0.1,0.7 0.1,0.2 0.5,0.5 0.8,0.3 0.2,-0.2 0.3,-0.6 0.2,-1 -0.3,-1.1 -1.4,-2.5 -2.4,-2.5 -1.2,0 -1.2,1.4 -1.1,2.6 0.3,1.3 1.4,2.6 2.5,3.2 1,0.6 2.2,0.7 2.8,-0.3 0.4,-0.6 0.5,-1.6 0.2,-2.7 C 9.6,52 8,49.7 6,48.9 4.3,48.4 3,49 2.6,50.7 2.1,53 3.2,56 5.4,58.3 c 0.5,0.6 1.1,1 1.7,1.4 2,1.2 4,0.9 4.9,-0.8 l 0.2,0.3 C 11.3,61 9.2,61.3 7.1,60.1 6.5,59.7 5.9,59.3 5.3,58.7 3,56.3 1.9,53 2.3,50.6 c 0.5,-1.8 1.8,-2.4 3.6,-1.9 1.8,0.6 3.7,2.7 4.5,5.5 z"
           id="path65055" /><path
           fill="#c4c2c0"
           d="m 10.5,56.1 c 0,-0.1 0,-0.3 0,-0.4 0,-0.1 0,-0.2 0,-0.4 0,-0.1 0,-0.1 0,-0.2 0,0 0,0 0,0 0,0 0,0 0,0 0,-0.1 0,-0.1 0,-0.2 0,-0.1 0,-0.2 -0.1,-0.3 0,-0.1 0,-0.2 -0.1,-0.4 0,-0.1 0,-0.2 -0.1,-0.3 0,-0.1 0,-0.1 0,-0.2 0,-0.1 0,-0.1 -0.1,-0.2 v 0 c 0,0 0,0 0,0 0,-0.1 -0.1,-0.2 -0.1,-0.3 0,0 0,0 0,0 0,0 0,0 0,0 0,-0.1 -0.1,-0.2 -0.1,-0.3 0,0 0,-0.1 -0.1,-0.1 0,-0.1 -0.1,-0.1 -0.1,-0.2 0,0 0,-0.1 0,-0.1 0,-0.1 0,-0.1 -0.1,-0.1 v 0 c 0,-0.1 -0.1,-0.2 -0.1,-0.2 0,0 0,0 0,0 C 9.4,52.1 9.4,51.9 9.3,51.8 9.2,51.7 9.1,51.5 9.1,51.4 9.1,51.3 9,51.3 9,51.2 9,51.1 8.9,51.1 8.9,51 8.8,50.9 8.7,50.8 8.7,50.7 8.6,50.6 8.6,50.6 8.5,50.5 c 0,0 -0.1,-0.1 -0.1,-0.1 0,-0.1 -0.1,-0.1 -0.1,-0.2 0,0 0,-0.1 -0.1,-0.1 C 8.1,50.1 8,50 7.9,50 c 0,0 0,0 0,0 -0.1,-0.1 -0.1,-0.1 -0.2,-0.2 0,0 0,0 -0.1,-0.1 v 0 c 0,0 0,0 0,0 C 7.5,49.6 7.5,49.6 7.4,49.5 7.3,49.4 7.3,49.4 7.2,49.3 7.2,49.3 7.1,49.2 7.1,49.2 7.1,49.2 7,49.1 7,49.1 7,49.1 6.9,49 6.9,49 c 0,0 -0.1,-0.1 -0.1,-0.1 0,0 -0.1,-0.1 -0.1,-0.1 0,0 -0.1,0 -0.1,-0.1 0,0 -0.1,0 -0.1,0 -0.1,0 -0.1,-0.1 -0.2,-0.1 0,0 -0.1,0 -0.1,-0.1 v 0 c 0,0 -0.1,0 -0.1,-0.1 v 0 c 0,0 0,0 -0.1,0 0,0 0,0 -0.1,0 0,0 -0.1,0 -0.1,0 -0.1,0 -0.1,0 -0.2,0 -0.1,0 -0.1,0 -0.2,0 0,0 -0.1,0 -0.1,0 0,0 -0.1,0 -0.1,0 0,0 -0.1,0 -0.1,0 0,0 0,0 0,0 0,0 -0.1,0 -0.1,0 -0.1,0 -0.2,0 -0.2,0 -0.1,0 -0.1,0 -0.2,0 -0.1,0 -0.1,0 -0.2,0 -0.1,0 -0.1,0 -0.2,0.1 -0.1,0 -0.1,0 -0.2,0.1 -0.1,0 -0.1,0 -0.2,0.1 l 3.4,-2 c 0.1,0 0.2,0.1 0.3,0.1 0,0 0.1,0 0.1,0.1 0.3,0.2 0.5,0.3 0.8,0.5 0.5,0.3 0.9,0.7 1.3,1.2 0.1,0.1 0.2,0.2 0.3,0.3 0.4,0.5 0.8,0.9 1.2,1.5 0.2,0.2 0.3,0.5 0.5,0.7 0,0.1 0.1,0.2 0.1,0.2 0.2,0.3 0.3,0.5 0.4,0.8 0,0 0,0 0,0 0.1,0.1 0.1,0.2 0.1,0.3 0.1,0.1 0.1,0.2 0.2,0.3 0.3,0.6 0.5,1.3 0.7,1.9 0.1,0.2 0.1,0.4 0.1,0.6 0,0.1 0.1,0.2 0.1,0.4 l -3.6,2.1 c 0,0 0,0 0,0 0,0 0,0 0.1,0 0,0 0,0 0.1,0 0,0 0,0 0,0 0.1,-0.1 0.1,-0.1 0.2,-0.2 0,0 0.1,-0.1 0.1,-0.1 0,0 0.1,-0.1 0.1,-0.1 v 0 c 0,-0.1 0.1,-0.1 0.1,-0.2 0,0 0,-0.1 0.1,-0.1 v 0 c 0,0 0,-0.1 0.1,-0.1 0.1,-0.1 0.1,-0.3 0.1,-0.4 -0.3,-0.2 -0.3,-0.3 -0.3,-0.4 z"
           id="path65057" /><path
           fill="#dd4a4a"
           d="m 32.7,42.7 c 0,0 -1.4,8 4.9,12.3 1,-2.6 2,-4.9 3.4,-6.1 4,0.6 7.9,0.2 11.7,-1.1 C 46.5,47 42.4,44 40.5,38.9 Z"
           id="path65059" /><path
           fill="#f25a5a"
           d="m 43,40.4 c -3.8,2.1 -7.6,4.3 -11.3,6.7 v 0 c 0,0 0,0 0,-0.1 C 32.5,43.5 31,39.8 28,37.7 27,37 25.9,36.6 24.8,36.5 v 0 c 3.6,-1.9 7.1,-3.9 10.5,-6.1 v 0 c 1.7,0.1 3.2,1 4.6,2.2 1,0.9 1.8,1.9 2.3,3.1 0.7,1.6 1,3.1 0.8,4.7 z"
           id="path65061" /><g
           id="g65099"><path
             fill="#2d2c2b"
             d="m 39.8,16.4 c -0.1,0.1 -0.3,0.2 -0.4,0.3 -6.2,3.6 -16.2,3.6 -22.4,0 -0.2,-0.1 -0.3,-0.2 -0.4,-0.3 h -4.3 l -0.1,14.4 c 0,2.4 1.5,4.7 4.7,6.5 6.2,3.6 16.2,3.6 22.4,0 3.1,-1.8 4.6,-4.1 4.6,-6.4 L 44,16.4 Z"
             id="path65063" /><path
             fill="#21201f"
             d="m 39.8,16.4 c -0.1,0.1 -0.3,0.2 -0.4,0.3 -5.1,3 -12.8,3.5 -18.9,1.5 v 20.7 c 6,1.9 13.6,1.4 18.7,-1.6 3.1,-1.8 4.6,-4.1 4.6,-6.4 l 0.1,-14.5 z"
             id="path65065" /><path
             fill="#383736"
             d="m 39.8,16.4 c -0.1,0.1 -0.3,0.2 -0.4,0.3 -3.1,1.8 -7.2,2.7 -11.3,2.7 V 40 c 4,0 8,-0.9 11.1,-2.7 3.1,-1.8 4.6,-4.1 4.6,-6.4 l 0.1,-14.5 z"
             id="path65067" /><path
             fill="#494846"
             d="m 39.8,16.4 c -0.1,0.1 -0.3,0.2 -0.4,0.3 -0.7,0.4 -1.6,0.8 -2.4,1.1 v 20.6 c 0.8,-0.3 1.5,-0.7 2.2,-1.1 3.1,-1.8 4.6,-4.1 4.6,-6.4 l 0.1,-14.5 z"
             id="path65069" /><path
             fill="#c6c6c6"
             d="m 16.6,16.4 c 0.1,0.1 0.3,0.2 0.4,0.3 6.2,3.6 16.2,3.6 22.4,0 0.2,-0.1 0.3,-0.2 0.4,-0.3 z"
             id="path65071" /><polygon
             fill="#2d2c2b"
             points="28.2,30.3 50.8,17.1 50.8,19.4 28.1,32.5 "
             id="polygon65073" /><polygon
             fill="#383736"
             points="5.4,17.1 28.2,30.3 28.1,32.5 5.4,19.4 "
             id="polygon65075" /><polyline
             fill="#494846"
             points="28 4 50.8 17.1 28.2 30.3 5.4 17.1 28 4"
             id="polyline65077" /><path
             fill="#ffd651"
             d="m 15.1,34.6 c -0.5,0 -0.9,-0.4 -0.9,-0.9 V 25 c 0,-0.3 0.2,-0.6 0.5,-0.8 l 13.1,-7.5 c 0.4,-0.3 1,-0.1 1.3,0.3 0.3,0.4 0.1,1 -0.3,1.3 l -12.6,7.3 v 8.2 c -0.2,0.4 -0.6,0.8 -1.1,0.8 0,0 0,0 0,0 z"
             id="path65079" /><path
             fill="#cea03a"
             d="m 15,44 c -0.9,0 -1.6,-0.4 -2.1,-1.1 -0.5,-0.6 -0.6,-1.4 -0.4,-2.3 l 1.7,-6 h 1.6 l 1.7,6 C 18,42.3 16.7,44 15,44 Z"
             id="path65081" /><path
             fill="#efc348"
             d="m 13.7,43 c -0.3,0 -0.5,0 -0.8,-0.1 -0.5,-0.6 -0.6,-1.4 -0.4,-2.3 l 1.7,-6 h 0.5 l 1.5,5.1 c 0.5,1.7 -0.8,3.3 -2.5,3.3 z"
             id="path65083" /><path
             fill="#cea03a"
             d="m 17.1,34.6 c 0,1.1 -0.9,2 -2,2 -0.6,0 -1.1,-0.3 -1.5,-0.7 C 13.3,35.5 13,35 13,34.5 c 0,-1.1 0.9,-2 2,-2 0.2,0 0.4,0 0.5,0.1 0.9,0.2 1.6,1 1.6,2 z"
             id="path65085" /><path
             fill="#efc348"
             d="m 16.1,34 c 0,1.1 -0.9,2 -2,2 -0.2,0 -0.3,0 -0.5,-0.1 C 13.3,35.5 13,35 13,34.5 c 0,-1.1 0.9,-2 2,-2 0.2,0 0.4,0 0.5,0.1 0.4,0.4 0.6,0.8 0.6,1.4 z"
             id="path65087" /><g
             id="g65097"><path
               fill="#2d2c2b"
               d="m 33.8,15.2 v 2.3 c 0,0.8 -0.5,1.6 -1.6,2.2 -2.1,1.2 -5.6,1.2 -7.8,0 -1.1,-0.6 -1.6,-1.5 -1.6,-2.3 v -2.3 c 0,0.8 0.5,1.6 1.6,2.3 2.2,1.2 5.6,1.2 7.8,0 1.1,-0.6 1.6,-1.4 1.6,-2.2 z"
               id="path65089" /><path
               fill="#21201f"
               d="m 32.2,17.4 c -1.7,1 -4.4,1.2 -6.5,0.5 v 2.3 c 2.1,0.6 4.7,0.5 6.5,-0.5 1.1,-0.6 1.6,-1.4 1.6,-2.2 v -2.3 c 0,0.8 -0.5,1.6 -1.6,2.2 z"
               id="path65091" /><path
               fill="#2d2c2b"
               d="m 32.2,17.4 c -0.6,0.3 -1.3,0.6 -2,0.7 v 2.3 c 0.7,-0.2 1.4,-0.4 2,-0.7 1.1,-0.6 1.6,-1.4 1.6,-2.2 v -2.3 c 0,0.8 -0.5,1.6 -1.6,2.2 z"
               id="path65093" /><path
               fill="#383736"
               d="m 32.2,12.9 c 2.2,1.2 2.2,3.3 0,4.5 -2.1,1.2 -5.6,1.2 -7.8,0 -2.2,-1.2 -2.2,-3.3 0,-4.5 2.2,-1.2 5.7,-1.2 7.8,0 z"
               id="path65095" /></g></g></g><g
         id="g65127"
         transform="matrix(0.12071701,0.00524661,-0.00516791,0.12255501,-4781.1766,765.69697)"><path
           fill="#656d78"
           d="m 511.883,350.104 c -2.75,-62.95 -56.889,-205.071 -59.186,-211.086 a 10.706,10.706 0 0 0 -4.062,-5.078 l -11.312,-7.5 v -10.945 a 10.65,10.65 0 0 0 -7.594,-10.21 L 351.34,81.7 a 10.677,10.677 0 0 0 -9,1.351 l -25.576,17.117 H 195.236 L 169.659,83.051 a 10.677,10.677 0 0 0 -9,-1.351 l -78.388,23.585 a 10.65,10.65 0 0 0 -7.594,10.21 v 10.945 l -11.312,7.5 a 10.727,10.727 0 0 0 -4.062,5.078 c -2.312,6.015 -56.436,148.136 -59.186,211.086 -1.609,36.75 15.062,56.779 29.327,67.092 15.296,11.078 31.093,13.359 31.749,13.453 a 10.623,10.623 0 0 0 8.937,-2.969 c 0.219,-0.203 21.187,-20.797 44.624,-41.373 43.405,-38.124 54.67,-40.655 56.014,-40.827 h 170.464 c 1.342,0.172 12.607,2.703 56.014,40.827 23.436,20.576 44.404,41.17 44.607,41.373 a 10.65,10.65 0 0 0 7.484,3.062 c 0.484,0 0.969,-0.031 1.469,-0.094 0.656,-0.094 16.451,-2.375 31.748,-13.453 14.266,-10.311 30.938,-30.341 29.329,-67.091 z"
           id="path65103" /><circle
           cx="138.42599"
           cy="196.399"
           r="31.999001"
           fill="#ccd1d9"
           id="circle65105" /><path
           fill="#aab2bc"
           d="m 138.426,153.736 c -23.515,0 -42.655,19.14 -42.655,42.663 0,23.522 19.14,42.662 42.655,42.662 23.53,0 42.67,-19.14 42.67,-42.662 0,-23.523 -19.14,-42.663 -42.67,-42.663 z m 0,63.998 c -11.765,0 -21.328,-9.57 -21.328,-21.335 0,-11.766 9.562,-21.336 21.328,-21.336 11.766,0 21.343,9.57 21.343,21.336 0,11.765 -9.578,21.335 -21.343,21.335 z"
           id="path65107" /><circle
           cx="309.327"
           cy="270.82599"
           r="31.999001"
           fill="#ccd1d9"
           id="circle65109" /><path
           fill="#aab2bc"
           d="m 309.326,313.481 c -23.516,0 -42.654,-19.141 -42.654,-42.655 0,-23.53 19.139,-42.663 42.654,-42.663 23.531,0 42.67,19.132 42.67,42.663 0,23.515 -19.139,42.655 -42.67,42.655 z m 0,-63.99 c -11.766,0 -21.328,9.57 -21.328,21.335 0,11.766 9.562,21.327 21.328,21.327 11.766,0 21.344,-9.562 21.344,-21.327 0,-11.764 -9.578,-21.335 -21.344,-21.335 z"
           id="path65111" /><path
           fill="#ccd1d9"
           d="m 202.674,302.825 c -5.891,0 -10.672,-4.781 -10.672,-10.672 v -42.662 c 0,-5.891 4.781,-10.664 10.672,-10.664 5.89,0 10.656,4.773 10.656,10.664 v 42.662 c 0,5.891 -4.766,10.672 -10.656,10.672 z"
           id="path65113" /><path
           fill="#ccd1d9"
           d="m 224.001,281.482 h -42.67 c -5.891,0 -10.656,-4.766 -10.656,-10.656 0,-5.89 4.765,-10.663 10.656,-10.663 h 42.67 c 5.891,0 10.672,4.772 10.672,10.663 0,5.891 -4.781,10.656 -10.672,10.656 z"
           id="path65115" /><path
           fill="#ffce54"
           d="m 370.199,146.307 c 4.172,4.172 4.172,10.922 0,15.086 -4.156,4.172 -10.922,4.172 -15.078,0 -4.172,-4.164 -4.172,-10.914 0,-15.086 4.156,-4.164 10.922,-4.164 15.078,0 z"
           id="path65117" /><path
           fill="#a0d468"
           d="m 370.199,210.07 c 4.172,4.164 4.172,10.922 0,15.086 -4.156,4.164 -10.922,4.164 -15.078,0 -4.172,-4.164 -4.172,-10.922 0,-15.086 4.156,-4.164 10.922,-4.164 15.078,0 z"
           id="path65119" /><path
           fill="#ed5564"
           d="m 402.197,178.071 c 4.172,4.164 4.172,10.922 0,15.086 -4.154,4.164 -10.92,4.164 -15.076,0 -4.172,-4.164 -4.172,-10.922 0,-15.086 4.156,-4.164 10.922,-4.164 15.076,0 z"
           id="path65121" /><path
           fill="#5d9cec"
           d="m 338.201,178.071 c 4.17,4.164 4.17,10.922 0,15.086 -4.156,4.164 -10.922,4.164 -15.078,0 -4.172,-4.164 -4.172,-10.922 0,-15.086 4.156,-4.164 10.922,-4.164 15.078,0 z"
           id="path65123" /><path
           fill="#434a54"
           d="m 195.236,100.168 18.094,42.655 h 85.34 l 18.094,-42.655 z"
           id="path65125" /></g><path
         d="m -4582.3585,718.16497 a 1.8495346,1.6879698 0 0 0 -1.0228,-1.5108 l -5.9389,-2.7092 5.9389,-2.7007 a 1.8495346,1.6879698 0 0 0 0,-3.0215 l -18.4954,-8.4398 a 1.8495346,1.6879698 0 0 0 -1.6534,0 l -18.4954,8.4398 a 1.8495346,1.6879698 0 0 0 0,3.0215 l 5.9388,2.7007 -5.9388,2.7092 a 1.8495346,1.6879698 0 0 0 0,3.0215 l 5.9388,2.7092 -5.9388,2.7092 a 1.8495346,1.6879698 0 0 0 0,3.0215 l 18.4954,8.4399 a 1.8495346,1.6879698 0 0 0 1.6534,0 l 18.4954,-8.4399 a 1.8495346,1.6879698 0 0 0 0,-3.0215 l -5.9389,-2.7092 5.9389,-2.7007 a 1.8495346,1.6879698 0 0 0 1.0228,-1.5192 z m -5.9851,8.4398 -14.3598,6.5527 -14.3598,-6.5527 5.1121,-2.3327 8.421,3.852 a 1.8495346,1.6879698 0 0 0 1.6534,0 l 8.421,-3.852 z m -14.3598,-1.8871 -14.3598,-6.5527 5.1121,-2.3328 8.421,3.852 a 1.8495346,1.6879698 0 0 0 1.6534,0 l 8.421,-3.852 5.1121,2.3328 z"
         fill="#f3c512"
         class="color000 svgShape"
         id="path65129"
         style="stroke-width:1.76691" /><g
         id="g65147"
         transform="matrix(0.60424992,0,0,0.72289929,-4669.8829,517.82437)"><path
           fill="#e9edf4"
           d="m 55.619,6.707 v 54.586 a 3.827,3.827 0 0 1 -3.827,3.828 H 6.505 A 3.827,3.827 0 0 1 2.678,61.293 V 15.79 h 9.083 a 3.827,3.827 0 0 0 3.827,-3.827 V 2.88 h 36.204 a 3.827,3.827 0 0 1 3.827,3.828 z"
           id="path65131" /><path
           fill="#8dd1fe"
           d="m 2.678,15.79 h 9.083 a 3.827,3.827 0 0 0 3.827,-3.828 V 2.88 Z"
           id="path65133" /><path
           fill="#d2dbea"
           d="m 47.478,23.596 a 1.27,1.27 0 0 1 -1.276,1.276 H 12.094 a 1.2755,1.2755 0 1 1 0,-2.551 h 34.108 c 0.71,0 1.276,0.566 1.276,1.275 z m 0,6.538 A 1.27,1.27 0 0 1 46.202,31.41 H 12.094 a 1.2755,1.2755 0 1 1 0,-2.551 h 34.108 c 0.71,0 1.276,0.566 1.276,1.275 z m 0,6.538 a 1.27,1.27 0 0 1 -1.276,1.276 H 12.094 a 1.2755,1.2755 0 1 1 0,-2.551 h 34.108 c 0.71,0 1.276,0.565 1.276,1.275 z m -4,6.538 a 1.27,1.27 0 0 1 -1.276,1.276 H 12.094 a 1.276,1.276 0 1 1 0,-2.552 h 30.108 c 0.71,0 1.276,0.566 1.276,1.276 z m 0,6.538 a 1.27,1.27 0 0 1 -1.276,1.276 H 12.094 a 1.276,1.276 0 1 1 0,-2.552 h 30.108 c 0.71,0 1.276,0.566 1.276,1.276 z"
           id="path65135" /><path
           fill="#d2dbea"
           d="m 43.478,43.21 a 1.27,1.27 0 0 1 -1.276,1.276 H 12.094 a 1.276,1.276 0 1 1 0,-2.552 h 30.108 c 0.71,0 1.276,0.566 1.276,1.276 z m 0,6.538 a 1.27,1.27 0 0 1 -1.276,1.276 H 12.094 a 1.276,1.276 0 1 1 0,-2.552 h 30.108 c 0.71,0 1.276,0.566 1.276,1.276 z m 4,6.538 a 1.27,1.27 0 0 1 -1.276,1.276 H 12.094 a 1.276,1.276 0 1 1 0,-2.552 h 34.108 c 0.71,0 1.276,0.566 1.276,1.276 z"
           id="path65137" /><path
           fill="#ffc90d"
           d="m 45.1,48.09 0.286,6.13 0.135,2.315 a 1.09,1.09 0 0 0 1.798,0.761 l 1.757,-1.512 4.767,-3.99 z"
           id="path65139" /><path
           fill="#342c37"
           d="m 45.386,54.22 0.135,2.315 a 1.09,1.09 0 0 0 1.798,0.761 l 1.757,-1.512 z"
           id="path65141" /><path
           fill="#f14f4a"
           d="M 64.506,26.305 53.841,51.799 45.1,48.092 55.747,22.641 Z"
           id="path65143" /><path
           fill="#342c37"
           d="m 63.75,28.114 1.203,-2.878 a 4.7472354,4.7472354 0 1 0 -8.759,-3.664 l -1.203,2.878 8.758,3.664 z"
           id="path65145" /></g><g
         id="g65155"
         transform="matrix(0.54783657,0,0,0.4908895,-4535.2275,471.09347)"><circle
           cx="33"
           cy="33"
           r="32"
           fill="#ffcc33"
           id="circle65149" /><circle
           cx="33"
           cy="33"
           r="25.719999"
           fill="#edb529"
           id="circle65151" /><path
           fill="#ffcc33"
           d="m 32.13,49.46 v -3.27 c -1.63,-0.21 -2.96,-0.57 -3.99,-1.1 -1.02,-0.53 -1.91,-1.38 -2.65,-2.55 -0.75,-1.17 -1.18,-2.61 -1.3,-4.3 l 3.29,-0.62 c 0.25,1.76 0.7,3.05 1.34,3.87 0.92,1.16 2.02,1.81 3.31,1.94 V 33.02 C 30.79,32.77 29.41,32.25 28.01,31.46 A 6.099,6.099 0 0 1 25.6,29.04 c -0.56,-1.03 -0.84,-2.2 -0.84,-3.51 0,-2.33 0.82,-4.21 2.47,-5.65 1.1,-0.97 2.74,-1.56 4.9,-1.78 v -1.56 h 1.93 v 1.56 c 1.9,0.18 3.41,0.74 4.52,1.67 1.43,1.19 2.29,2.82 2.58,4.89 l -3.38,0.51 c -0.19,-1.28 -0.6,-2.27 -1.21,-2.95 -0.61,-0.68 -1.45,-1.14 -2.52,-1.35 v 9.43 c 1.65,0.41 2.74,0.73 3.27,0.96 1.02,0.45 1.85,0.99 2.49,1.63 0.64,0.64 1.13,1.4 1.48,2.29 0.34,0.88 0.52,1.84 0.52,2.87 0,2.26 -0.72,4.15 -2.16,5.67 -1.44,1.51 -3.31,2.33 -5.59,2.43 v 3.31 z m 0,-28.63 c -1.27,0.19 -2.27,0.7 -3.01,1.53 -0.73,0.82 -1.1,1.8 -1.1,2.92 0,1.11 0.31,2.05 0.94,2.8 0.62,0.75 1.68,1.35 3.17,1.8 z m 1.92,22.6 c 1.27,-0.16 2.32,-0.71 3.15,-1.65 0.83,-0.94 1.24,-2.11 1.24,-3.51 0,-1.19 -0.29,-2.14 -0.88,-2.86 -0.59,-0.72 -1.76,-1.37 -3.51,-1.93 z"
           id="path65153" /></g><g
         id="g65165"
         transform="matrix(1.185942,0,0,1.2148592,-4490.514,701.60677)"><path
           fill="#f8a839"
           d="m 20.435,9.5 h -9 L 8.861,3.352 a 1,1 0 0 1 1.373,-1.325 l 1.387,0.757 a 2,2 0 0 0 2.372,-0.342 l 0.528,-0.528 a 2,2 0 0 1 2.828,0 l 0.528,0.528 a 2,2 0 0 0 2.372,0.342 l 1.387,-0.757 a 1,1 0 0 1 1.373,1.325 z m 1.75,22 H 9.555 A 6,6 0 0 1 3.734,26.955 l -0.015,-0.06 a 13,13 0 0 1 3.7,-12.62 L 10.37,11.5 h 12 l 2.653,2.83 a 13,13 0 0 1 3.128,12.044 l -0.145,0.581 A 6,6 0 0 1 22.185,31.5 Z"
           id="path65157" /><circle
           cx="15.87"
           cy="21.5"
           r="6"
           fill="#fedc55"
           id="circle65159" /><rect
           width="13.112"
           height="2.289"
           x="9.4530001"
           y="9.3549995"
           fill="#e1762e"
           rx="1.074"
           ry="1.074"
           id="rect65161" /><path
           d="M 16,15 A 6.5,6.5 0 1 0 22.5,21.5 6.508,6.508 0 0 0 16,15 Z m 0,12 A 5.5,5.5 0 1 1 21.5,21.5 5.507,5.507 0 0 1 16,27 Z m 9.519,-13.011 -2.627,-2.8 a 1.481,1.481 0 0 0 0.174,-0.686 1.5,1.5 0 0 0 -1.5,-1.5 h -0.249 l 2.27,-5.424 A 1.5,1.5 0 0 0 21.527,1.591 L 20.14,2.347 A 1.507,1.507 0 0 1 18.361,2.091 L 17.834,1.563 a 2.5,2.5 0 0 0 -3.536,0 L 13.771,2.091 A 1.51,1.51 0 0 1 11.992,2.347 L 10.6,1.588 A 1.5,1.5 0 0 0 8.53,3.545 L 10.814,9 h -0.249 a 1.493,1.493 0 0 0 -0.953,2.649 l -2.4,2.263 A 13.538,13.538 0 0 0 3.379,27.076 6.49,6.49 0 0 0 9.685,32 h 12.63 a 6.49,6.49 0 0 0 6.306,-4.923 l 0.146,-0.581 A 13.446,13.446 0 0 0 25.519,13.989 Z M 9.438,3.128 a 0.5,0.5 0 0 1 0.687,-0.663 l 1.387,0.756 A 2.515,2.515 0 0 0 14.477,2.8 L 15,2.268 a 1.5,1.5 0 0 1 2.122,0 l 0.527,0.528 a 2.515,2.515 0 0 0 2.965,0.427 L 22,2.466 a 0.485,0.485 0 0 1 0.587,0.079 0.5,0.5 0 0 1 0.086,0.614 L 20.232,9 H 11.9 Z M 10.565,10 h 11 a 0.5,0.5 0 1 1 0,1 h -11 a 0.5,0.5 0 0 1 0,-1 z M 27.8,26.253 27.654,26.834 A 5.491,5.491 0 0 1 22.315,31 H 9.685 A 5.51,5.51 0 0 1 4.334,26.774 12.512,12.512 0 0 1 7.894,14.64 L 10.7,12 h 11.583 l 2.506,2.672 A 12.449,12.449 0 0 1 27.8,26.253 Z M 15.5,19 h 1 a 1,1 0 0 1 1,1 0.5,0.5 0 0 0 1,0 2,2 0 0 0 -2,-2 v -0.5 a 0.5,0.5 0 0 0 -1,0 V 18 a 2,2 0 0 0 0,4 h 1 a 1,1 0 0 1 0,2 h -1 a 1,1 0 0 1 -1,-1 0.5,0.5 0 0 0 -1,0 2,2 0 0 0 2,2 v 0.5 a 0.5,0.5 0 0 0 1,0 V 25 a 2,2 0 0 0 0,-4 h -1 a 1,1 0 0 1 0,-2 z"
           id="path65163" /></g></g></g></svg>
